<svg style="text(font-family: sans-ferif)" xmlns="http://www.w3.org/2000/svg" width="2523" height="808"><defs ><marker id="arrow" viewBox="0 0 10 10" refX="5" refY="5" markerWidth="5" markerHeight="5" orient="auto-start-reverse"><path d="M 0 0 L 10 5 L 0 10 z"/></marker></defs><g transform="translate(2.0 2.0)"><g transform="translate(46, 36.0)"><g ><rect stroke="#3D348B" stroke-width="4" width="236" height="176" rx="8" fill="white"/><text dominant-baseline="middle" style="fill: #3D348B" x="8" y="16.0">5</text><g transform="translate(208.0, 4.0) scale(0.046875, 0.046875)"><path stroke="#666666" stroke-width="32" d="M216.08 192v143.85a40.08 40.08 0 0080.15 0l.13-188.55a67.94 67.94 0 10-135.87 0v189.82a95.51 95.51 0 10191 0V159.74" stroke-linecap="round" stroke-miterlimit="10" fill="none"/></g><text dominant-baseline="middle" text-anchor="middle" x="118.0" y="46.0"> Raise and accept quote</text><path stroke="#666666" stroke-width="2" d="M2.0,91.0 L234.0,91.0Z"/><text dominant-baseline="middle" text-anchor="middle" fill="#44BBA4" x="118.0" y="108.0">Finance administrator</text><text dominant-baseline="middle" text-anchor="middle" fill="#44BBA4" x="118.0" y="132.0">Customer</text><path stroke="#666666" stroke-width="2" d="M2.0,145.0 L234.0,145.0Z"/><text dominant-baseline="middle" text-anchor="middle" fill="#3F88C5" x="118.0" y="162.0">Revenue Cloud</text></g></g><g transform="translate(384, 48.0)"><g ><rect stroke="#3D348B" stroke-width="4" width="236" height="152" rx="8" fill="white"/><text dominant-baseline="middle" style="fill: #3D348B" x="8" y="16.0">6</text><g transform="translate(208.0, 4.0) scale(0.046875, 0.046875)"><path stroke="#666666" stroke-width="32" d="M216.08 192v143.85a40.08 40.08 0 0080.15 0l.13-188.55a67.94 67.94 0 10-135.87 0v189.82a95.51 95.51 0 10191 0V159.74" stroke-linecap="round" stroke-miterlimit="10" fill="none"/></g><text dominant-baseline="middle" text-anchor="middle" x="118.0" y="46.0"> Raise and confirm order</text><path stroke="#666666" stroke-width="2" d="M2.0,91.0 L234.0,91.0Z"/><text dominant-baseline="middle" text-anchor="middle" fill="#44BBA4" x="118.0" y="108.0">Customer</text><path stroke="#666666" stroke-width="2" d="M2.0,121.0 L234.0,121.0Z"/><text dominant-baseline="middle" text-anchor="middle" fill="#3F88C5" x="118.0" y="138.0">Revenue Cloud</text></g></g><g transform="translate(384, 280.0)"><g ><rect stroke="#3D348B" stroke-width="4" width="236" height="152" rx="8" fill="white"/><text dominant-baseline="middle" style="fill: #3D348B" x="8" y="16.0">3</text><g transform="translate(208.0, 4.0) scale(0.046875, 0.046875)"><path stroke="#666666" stroke-width="32" d="M216.08 192v143.85a40.08 40.08 0 0080.15 0l.13-188.55a67.94 67.94 0 10-135.87 0v189.82a95.51 95.51 0 10191 0V159.74" stroke-linecap="round" stroke-miterlimit="10" fill="none"/></g><text dominant-baseline="middle" text-anchor="middle" x="118.0" y="46.0"> Sell to customer</text><path stroke="#666666" stroke-width="2" d="M2.0,91.0 L234.0,91.0Z"/><text dominant-baseline="middle" text-anchor="middle" fill="#44BBA4" x="118.0" y="108.0">Account Exec</text><path stroke="#666666" stroke-width="2" d="M2.0,121.0 L234.0,121.0Z"/><text dominant-baseline="middle" text-anchor="middle" fill="#3F88C5" x="118.0" y="138.0">Sales Cloud</text></g></g><g transform="translate(857, 0.0)"><g ><rect stroke="#3D348B" stroke-width="4" width="236" height="248" rx="8" fill="white"/><text dominant-baseline="middle" style="fill: #3D348B" x="8" y="16.0">7</text><g transform="translate(208.0, 4.0) scale(0.046875, 0.046875)"><path stroke="#666666" stroke-width="32" d="M216.08 192v143.85a40.08 40.08 0 0080.15 0l.13-188.55a67.94 67.94 0 10-135.87 0v189.82a95.51 95.51 0 10191 0V159.74" stroke-linecap="round" stroke-miterlimit="10" fill="none"/></g><text dominant-baseline="middle" text-anchor="middle" x="118.0" y="46.0"> Ship product with more</text><text dominant-baseline="middle" text-anchor="middle" x="118.0" y="70.0">words wtf I need more</text><text dominant-baseline="middle" text-anchor="middle" x="118.0" y="94.0">lines</text><path stroke="#666666" stroke-width="2" d="M2.0,139.0 L234.0,139.0Z"/><text dominant-baseline="middle" text-anchor="middle" fill="#44BBA4" x="118.0" y="156.0">Manufacturing</text><path stroke="#666666" stroke-width="2" d="M2.0,169.0 L234.0,169.0Z"/><text dominant-baseline="middle" text-anchor="middle" fill="#3F88C5" x="118.0" y="186.0">ERP</text><text dominant-baseline="middle" text-anchor="middle" fill="#3F88C5" x="118.0" y="210.0">More</text><text dominant-baseline="middle" text-anchor="middle" fill="#3F88C5" x="118.0" y="234.0">More</text></g></g><g transform="translate(857, 280.0)"><g ><rect stroke="#3D348B" stroke-width="4" width="236" height="152" rx="8" fill="white"/><text dominant-baseline="middle" style="fill: #3D348B" x="8" y="16.0">8</text><g transform="translate(208.0, 4.0) scale(0.046875, 0.046875)"><path stroke="#666666" stroke-width="32" d="M216.08 192v143.85a40.08 40.08 0 0080.15 0l.13-188.55a67.94 67.94 0 10-135.87 0v189.82a95.51 95.51 0 10191 0V159.74" stroke-linecap="round" stroke-miterlimit="10" fill="none"/></g><text dominant-baseline="middle" text-anchor="middle" x="118.0" y="46.0"> Raise invoice</text><path stroke="#666666" stroke-width="2" d="M2.0,91.0 L234.0,91.0Z"/><text dominant-baseline="middle" text-anchor="middle" fill="#44BBA4" x="118.0" y="108.0">Finance administrator</text><path stroke="#666666" stroke-width="2" d="M2.0,121.0 L234.0,121.0Z"/><text dominant-baseline="middle" text-anchor="middle" fill="#3F88C5" x="118.0" y="138.0">Revenue Cloud</text></g></g><g transform="translate(857, 464.0)"><g ><rect stroke="#3D348B" stroke-width="4" width="236" height="152" rx="8" fill="white"/><text dominant-baseline="middle" style="fill: #3D348B" x="8" y="16.0">1</text><g transform="translate(208.0, 4.0) scale(0.046875, 0.046875)"><path stroke="#666666" stroke-width="32" d="M216.08 192v143.85a40.08 40.08 0 0080.15 0l.13-188.55a67.94 67.94 0 10-135.87 0v189.82a95.51 95.51 0 10191 0V159.74" stroke-linecap="round" stroke-miterlimit="10" fill="none"/></g><text dominant-baseline="middle" text-anchor="middle" x="118.0" y="46.0"> Progress lead</text><path stroke="#666666" stroke-width="2" d="M2.0,91.0 L234.0,91.0Z"/><text dominant-baseline="middle" text-anchor="middle" fill="#44BBA4" x="118.0" y="108.0">Account</text><path stroke="#666666" stroke-width="2" d="M2.0,121.0 L234.0,121.0Z"/><text dominant-baseline="middle" text-anchor="middle" fill="#3F88C5" x="118.0" y="138.0">Sales Cloud</text></g></g><g transform="translate(857, 648.0)"><g ><rect stroke="#3D348B" stroke-width="4" width="236" height="152" rx="8" fill="white"/><text dominant-baseline="middle" style="fill: #3D348B" x="8" y="16.0">4</text><g transform="translate(208.0, 4.0) scale(0.046875, 0.046875)"><path stroke="#666666" stroke-width="32" d="M216.08 192v143.85a40.08 40.08 0 0080.15 0l.13-188.55a67.94 67.94 0 10-135.87 0v189.82a95.51 95.51 0 10191 0V159.74" stroke-linecap="round" stroke-miterlimit="10" fill="none"/></g><text dominant-baseline="middle" text-anchor="middle" x="118.0" y="46.0"> Forecast revenue</text><path stroke="#666666" stroke-width="2" d="M2.0,91.0 L234.0,91.0Z"/><text dominant-baseline="middle" text-anchor="middle" fill="#44BBA4" x="118.0" y="108.0">VP Sales</text><path stroke="#666666" stroke-width="2" d="M2.0,121.0 L234.0,121.0Z"/><text dominant-baseline="middle" text-anchor="middle" fill="#3F88C5" x="118.0" y="138.0">Sales Cloud</text></g></g><g transform="translate(1323, 51.0)"><g ><rect stroke="#3D348B" stroke-width="4" width="236" height="146" rx="8" fill="white"/><text dominant-baseline="middle" style="fill: #3D348B" x="8" y="16.0">9</text><g transform="translate(208.0, 4.0) scale(0.046875, 0.046875)"><path stroke="#666666" stroke-width="32" d="M216.08 192v143.85a40.08 40.08 0 0080.15 0l.13-188.55a67.94 67.94 0 10-135.87 0v189.82a95.51 95.51 0 10191 0V159.74" stroke-linecap="round" stroke-miterlimit="10" fill="none"/></g><text dominant-baseline="middle" text-anchor="middle" x="118.0" y="46.0"> Raise payment</text><path stroke="#666666" stroke-width="2" d="M2.0,91.0 L234.0,91.0Z"/><text dominant-baseline="middle" text-anchor="middle" fill="#44BBA4" x="118.0" y="108.0">Customer</text><text dominant-baseline="middle" text-anchor="middle" fill="#44BBA4" x="118.0" y="132.0">Finance administrator</text></g></g><g transform="translate(1323, 280.0)"><g ><rect stroke="#3D348B" stroke-width="4" width="236" height="152" rx="8" fill="white"/><text dominant-baseline="middle" style="fill: #3D348B" x="8" y="16.0">2</text><g transform="translate(208.0, 4.0) scale(0.046875, 0.046875)"><path stroke="#666666" stroke-width="32" d="M216.08 192v143.85a40.08 40.08 0 0080.15 0l.13-188.55a67.94 67.94 0 10-135.87 0v189.82a95.51 95.51 0 10191 0V159.74" stroke-linecap="round" stroke-miterlimit="10" fill="none"/></g><text dominant-baseline="middle" text-anchor="middle" x="118.0" y="46.0"> Run campaign</text><path stroke="#666666" stroke-width="2" d="M2.0,91.0 L234.0,91.0Z"/><text dominant-baseline="middle" text-anchor="middle" fill="#44BBA4" x="118.0" y="108.0">Marketing</text><path stroke="#666666" stroke-width="2" d="M2.0,121.0 L234.0,121.0Z"/><text dominant-baseline="middle" text-anchor="middle" fill="#3F88C5" x="118.0" y="138.0">Marketing Cloud</text></g></g><g transform="translate(1951, 48.0)"><g ><rect stroke="#3D348B" stroke-width="4" width="236" height="152" rx="8" fill="white"/><text dominant-baseline="middle" style="fill: #3D348B" x="8" y="16.0">10</text><g transform="translate(208.0, 4.0) scale(0.046875, 0.046875)"><path stroke="#666666" stroke-width="32" d="M216.08 192v143.85a40.08 40.08 0 0080.15 0l.13-188.55a67.94 67.94 0 10-135.87 0v189.82a95.51 95.51 0 10191 0V159.74" stroke-linecap="round" stroke-miterlimit="10" fill="none"/></g><text dominant-baseline="middle" text-anchor="middle" x="118.0" y="46.0"> Book revenue</text><path stroke="#666666" stroke-width="2" d="M2.0,91.0 L234.0,91.0Z"/><text dominant-baseline="middle" text-anchor="middle" fill="#44BBA4" x="118.0" y="108.0">Finance administrator</text><path stroke="#666666" stroke-width="2" d="M2.0,121.0 L234.0,121.0Z"/><text dominant-baseline="middle" text-anchor="middle" fill="#3F88C5" x="118.0" y="138.0">Revenue Cloud</text></g></g><path stroke="#666666" stroke-width="2" d="M0,94.66666666666666 L41,94.66666666666666" marker-end="url(#arrow)" fill="none"/><path stroke="#666666" stroke-width="2" d="M283.0,124.0 L359.0,124.0 L378.0,124.0" marker-end="url(#arrow)" fill="none"/><path stroke="#666666" stroke-width="2" d="M621.0,98.66666666666666 L711.0,98.66666666666666 L851.0,124.0" marker-end="url(#arrow)" fill="none"/><path stroke="#666666" stroke-width="2" d="M621.0,149.33333333333331 L711.0,149.33333333333331 L851.0,356.0" marker-end="url(#arrow)" fill="none"/><path stroke="#666666" stroke-width="2" d="M621.0,318.0 L711.0,318.0 L40.0,153.33333333333331" marker-end="url(#arrow)" fill="none"/><path stroke="#666666" stroke-width="2" d="M621.0,356.0 L711.0,356.0 L851.0,578.0" marker-end="url(#arrow)" fill="none"/><path stroke="#666666" stroke-width="2" d="M621.0,394.0 L711.0,394.0 L851.0,724.0" marker-end="url(#arrow)" fill="none"/><path stroke="#666666" stroke-width="2" d="M1094.0,82.66666666666667 L1183.0,82.66666666666667 L1317.0,99.66666666666666" marker-end="url(#arrow)" fill="none"/><path stroke="#666666" stroke-width="2" d="M1094.0,165.33333333333334 L1183.0,165.33333333333334 L1945.0,124.0" marker-end="url(#arrow)" fill="none"/><path stroke="#666666" stroke-width="2" d="M1094.0,330.6666666666667 L1183.0,330.6666666666667 L1317.0,148.33333333333331" marker-end="url(#arrow)" fill="none"/><path stroke="#666666" stroke-width="2" d="M1094.0,381.3333333333333 L1183.0,381.3333333333333 L1945.0,162.0" marker-end="url(#arrow)" fill="none"/><path stroke="#666666" stroke-width="2" d="M782,502.0 L852,502.0" marker-end="url(#arrow)" fill="none"/><path stroke="#666666" stroke-width="2" d="M1094.0,502.0 L1183.0,502.0 L1317.0,356.0" marker-end="url(#arrow)" fill="none"/><path stroke="#666666" stroke-width="2" d="M1094.0,540.0 L1183.0,540.0 L378.0,356.0" marker-end="url(#arrow)" fill="none"/><path stroke="#666666" stroke-width="2" d="M1094.0,578.0 L1194.0,578.0" marker-end="url(#arrow)" fill="none"/><path stroke="#666666" stroke-width="2" d="M1094.0,724.0 L1194.0,724.0" marker-end="url(#arrow)" fill="none"/><path stroke="#666666" stroke-width="2" d="M1560.0,124.0 L1664.0,124.0 L1945.0,86.0" marker-end="url(#arrow)" fill="none"/><path stroke="#666666" stroke-width="2" d="M1560.0,330.6666666666667 L1664.0,330.6666666666667 L851.0,540.0" marker-end="url(#arrow)" fill="none"/><path stroke="#666666" stroke-width="2" d="M1560.0,381.3333333333333 L1675.0,381.3333333333333" marker-end="url(#arrow)" fill="none"/><path stroke="#666666" stroke-width="2" d="M2188.0,98.66666666666666 L2298.0,98.66666666666666" marker-end="url(#arrow)" fill="none"/><path stroke="#666666" stroke-width="2" d="M2188.0,149.33333333333331 L2298.0,149.33333333333331" marker-end="url(#arrow)" fill="none"/></g></svg>